<?xml version="1.0" encoding="utf-8"?>
<!-- Generator: Adobe Illustrator 16.0.4, SVG Export Plug-In . SVG Version: 6.00 Build 0)  -->
<!DOCTYPE svg PUBLIC "-//W3C//DTD SVG 1.1//EN" "http://www.w3.org/Graphics/SVG/1.1/DTD/svg11.dtd">
<svg version="1.1" xmlns="http://www.w3.org/2000/svg" xmlns:xlink="http://www.w3.org/1999/xlink" x="0px" y="0px"
	 width="240.04px" height="87.339px" viewBox="0 0 240.04 87.339" enable-background="new 0 0 240.04 87.339" xml:space="preserve">
<g id="Layer_2">
</g>
<g id="Layer_3">
	<g>
		<path fill="#737577" d="M99.552,54.929c-0.093-0.602-0.477-0.923-1.088-0.923c-0.944,0-1.253,0.954-1.253,1.74
			c0,0.767,0.3,1.689,1.222,1.689c0.685,0,1.079-0.436,1.172-1.088h1.42c-0.187,1.421-1.172,2.198-2.581,2.198
			c-1.616,0-2.705-1.14-2.705-2.746c0-1.669,0.996-2.902,2.736-2.902c1.265,0,2.424,0.663,2.518,2.031H99.552z"/>
		<path fill="#737577" d="M104.328,52.897c1.688,0,2.776,1.119,2.776,2.829c0,1.699-1.088,2.819-2.776,2.819
			c-1.679,0-2.768-1.12-2.768-2.819C101.561,54.016,102.649,52.897,104.328,52.897z M104.328,57.436
			c1.005,0,1.304-0.859,1.304-1.709c0-0.861-0.299-1.721-1.304-1.721c-0.996,0-1.295,0.86-1.295,1.721
			C103.033,56.576,103.333,57.436,104.328,57.436z"/>
		<path fill="#737577" d="M107.933,53.042h1.398v0.746h0.031c0.374-0.601,1.015-0.891,1.636-0.891c1.566,0,1.961,0.88,1.961,2.207
			v3.295h-1.472v-3.026c0-0.88-0.26-1.316-0.943-1.316c-0.798,0-1.139,0.446-1.139,1.534v2.809h-1.472V53.042z"/>
		<path fill="#737577" d="M113.951,53.042h1.398v0.746h0.031c0.374-0.601,1.018-0.891,1.638-0.891c1.564,0,1.958,0.88,1.958,2.207
			v3.295h-1.471v-3.026c0-0.88-0.258-1.316-0.942-1.316c-0.799,0-1.141,0.446-1.141,1.534v2.809h-1.472V53.042z"/>
		<path fill="#737577" d="M121.184,56.08c0.042,0.932,0.498,1.356,1.316,1.356c0.59,0,1.066-0.362,1.159-0.693h1.296
			c-0.414,1.263-1.296,1.803-2.508,1.803c-1.689,0-2.736-1.161-2.736-2.819c0-1.606,1.11-2.829,2.736-2.829
			c1.825,0,2.706,1.534,2.601,3.182H121.184z M123.577,55.146c-0.136-0.745-0.456-1.14-1.171-1.14c-0.933,0-1.202,0.726-1.223,1.14
			H123.577z"/>
		<path fill="#737577" d="M129.44,54.929c-0.093-0.602-0.477-0.923-1.087-0.923c-0.945,0-1.255,0.954-1.255,1.74
			c0,0.767,0.301,1.689,1.223,1.689c0.684,0,1.078-0.436,1.171-1.088h1.42c-0.188,1.421-1.171,2.198-2.581,2.198
			c-1.617,0-2.703-1.14-2.703-2.746c0-1.669,0.994-2.902,2.734-2.902c1.266,0,2.426,0.663,2.52,2.031H129.44z"/>
		<path fill="#737577" d="M133.48,53.042h1.078v0.983h-1.078v2.653c0,0.499,0.125,0.623,0.623,0.623c0.155,0,0.301-0.01,0.455-0.041
			v1.15c-0.249,0.042-0.57,0.051-0.86,0.051c-0.901,0-1.688-0.207-1.688-1.275v-3.161h-0.893v-0.983h0.893v-1.607h1.47V53.042z"/>
		<path fill="#737577" d="M135.2,56.805h1.627v1.595H135.2V56.805z"/>
		<path fill="#737577" d="M142.226,54.929c-0.093-0.602-0.477-0.923-1.089-0.923c-0.943,0-1.253,0.954-1.253,1.74
			c0,0.767,0.299,1.689,1.223,1.689c0.683,0,1.078-0.436,1.171-1.088h1.419c-0.187,1.421-1.17,2.198-2.579,2.198
			c-1.617,0-2.706-1.14-2.706-2.746c0-1.669,0.996-2.902,2.736-2.902c1.266,0,2.425,0.663,2.519,2.031H142.226z"/>
		<path fill="#737577" d="M147.001,52.897c1.688,0,2.776,1.119,2.776,2.829c0,1.699-1.088,2.819-2.776,2.819
			c-1.678,0-2.766-1.12-2.766-2.819C144.235,54.016,145.323,52.897,147.001,52.897z M147.001,57.436
			c1.005,0,1.306-0.859,1.306-1.709c0-0.861-0.301-1.721-1.306-1.721c-0.994,0-1.295,0.86-1.295,1.721
			C145.706,56.576,146.007,57.436,147.001,57.436z"/>
		<path fill="#737577" d="M150.646,51.001h1.474v7.398h-1.474V51.001z"/>
		<path fill="#737577" d="M153.195,51.001h1.473v7.398h-1.473V51.001z"/>
		<path fill="#737577" d="M155.641,54.689c0.084-1.377,1.316-1.792,2.52-1.792c1.067,0,2.351,0.238,2.351,1.522v2.789
			c0,0.487,0.053,0.974,0.187,1.191h-1.492c-0.051-0.166-0.093-0.342-0.103-0.519c-0.467,0.487-1.15,0.665-1.803,0.665
			c-1.016,0-1.825-0.509-1.825-1.606c0-1.212,0.911-1.503,1.825-1.628c0.9-0.134,1.74-0.103,1.74-0.704
			c0-0.632-0.437-0.726-0.954-0.726c-0.559,0-0.921,0.229-0.973,0.808H155.641z M159.04,55.778
			c-0.248,0.217-0.767,0.228-1.223,0.311c-0.456,0.093-0.869,0.249-0.869,0.787c0,0.549,0.424,0.684,0.9,0.684
			c1.15,0,1.191-0.91,1.191-1.232V55.778z"/>
		<path fill="#737577" d="M161.525,51.001h1.472v2.694h0.021c0.363-0.548,1.025-0.797,1.689-0.797c1.066,0,2.217,0.86,2.217,2.817
			c0,1.969-1.15,2.831-2.217,2.831c-0.789,0-1.44-0.239-1.762-0.83h-0.021v0.684h-1.398V51.001z M164.198,54.006
			c-0.869,0-1.253,0.818-1.253,1.721c0,0.891,0.384,1.709,1.253,1.709c0.871,0,1.255-0.818,1.255-1.709
			C165.453,54.824,165.069,54.006,164.198,54.006z"/>
		<path fill="#737577" d="M170.332,52.897c1.688,0,2.778,1.119,2.778,2.829c0,1.699-1.09,2.819-2.778,2.819
			c-1.678,0-2.767-1.12-2.767-2.819C167.565,54.016,168.654,52.897,170.332,52.897z M170.332,57.436
			c1.006,0,1.305-0.859,1.305-1.709c0-0.861-0.299-1.721-1.305-1.721c-0.994,0-1.295,0.86-1.295,1.721
			C169.037,56.576,169.338,57.436,170.332,57.436z"/>
		<path fill="#737577" d="M173.937,53.042h1.398v0.995h0.021c0.271-0.674,0.996-1.14,1.71-1.14c0.105,0,0.229,0.02,0.322,0.052
			v1.368c-0.135-0.032-0.354-0.053-0.529-0.053c-1.076,0-1.449,0.778-1.449,1.721v2.414h-1.473V53.042z"/>
		<path fill="#737577" d="M177.781,54.689c0.082-1.377,1.316-1.792,2.518-1.792c1.067,0,2.352,0.238,2.352,1.522v2.789
			c0,0.487,0.053,0.974,0.187,1.191h-1.491c-0.051-0.166-0.094-0.342-0.104-0.519c-0.465,0.487-1.148,0.665-1.803,0.665
			c-1.016,0-1.824-0.509-1.824-1.606c0-1.212,0.913-1.503,1.824-1.628c0.903-0.134,1.741-0.103,1.741-0.704
			c0-0.632-0.436-0.726-0.954-0.726c-0.559,0-0.921,0.229-0.973,0.808H177.781z M181.18,55.778c-0.25,0.217-0.766,0.228-1.223,0.311
			c-0.457,0.093-0.871,0.249-0.871,0.787c0,0.549,0.425,0.684,0.901,0.684c1.15,0,1.192-0.91,1.192-1.232V55.778z"/>
		<path fill="#737577" d="M185.531,53.042h1.076v0.984h-1.076v2.652c0,0.499,0.124,0.623,0.621,0.623
			c0.155,0,0.301-0.01,0.455-0.041v1.15c-0.248,0.042-0.568,0.051-0.858,0.051c-0.902,0-1.69-0.207-1.69-1.275v-3.16h-0.891v-0.984
			h0.891v-1.607h1.473V53.042z"/>
		<path fill="#737577" d="M188.401,56.08c0.04,0.932,0.496,1.356,1.315,1.356c0.589,0,1.065-0.362,1.158-0.693h1.298
			c-0.415,1.263-1.298,1.803-2.509,1.803c-1.688,0-2.735-1.161-2.735-2.819c0-1.606,1.108-2.829,2.735-2.829
			c1.824,0,2.706,1.534,2.603,3.182H188.401z M190.794,55.146c-0.135-0.745-0.456-1.14-1.171-1.14c-0.934,0-1.203,0.726-1.222,1.14
			H190.794z"/>
		<path fill="#737577" d="M192.659,56.805h1.625v1.595h-1.625V56.805z"/>
		<path fill="#737577" d="M198.169,52.213h-1.471v-1.212h1.471V52.213z M196.698,53.042h1.471v5.357h-1.471V53.042z"/>
		<path fill="#737577" d="M199.205,53.042h1.4v0.746h0.03c0.372-0.601,1.017-0.891,1.637-0.891c1.564,0,1.958,0.88,1.958,2.207
			v3.295h-1.469v-3.026c0-0.88-0.261-1.316-0.945-1.316c-0.799,0-1.14,0.445-1.14,1.533v2.809h-1.472V53.042z"/>
		<path fill="#737577" d="M205.225,53.042h1.398v0.746h0.031c0.373-0.601,1.017-0.891,1.638-0.891c1.564,0,1.958,0.88,1.958,2.207
			v3.295h-1.471v-3.026c0-0.88-0.26-1.316-0.943-1.316c-0.798,0-1.141,0.445-1.141,1.533v2.809h-1.471V53.042z"/>
		<path fill="#737577" d="M213.846,52.897c1.688,0,2.776,1.119,2.776,2.829c0,1.699-1.089,2.819-2.776,2.819
			c-1.678,0-2.767-1.12-2.767-2.819C211.079,54.016,212.168,52.897,213.846,52.897z M213.846,57.436
			c1.004,0,1.305-0.859,1.305-1.709c0-0.861-0.301-1.721-1.305-1.721c-0.995,0-1.295,0.86-1.295,1.721
			C212.551,56.576,212.851,57.436,213.846,57.436z"/>
		<path fill="#737577" d="M220.414,58.399h-1.637l-1.835-5.357h1.543l1.131,3.658h0.021l1.129-3.658h1.463L220.414,58.399z"/>
		<path fill="#737577" d="M222.65,54.689c0.082-1.377,1.315-1.792,2.518-1.792c1.067,0,2.354,0.238,2.354,1.522v2.789
			c0,0.487,0.051,0.974,0.187,1.191h-1.493c-0.051-0.166-0.094-0.342-0.103-0.519c-0.468,0.487-1.15,0.665-1.804,0.665
			c-1.016,0-1.824-0.509-1.824-1.606c0-1.212,0.913-1.503,1.824-1.628c0.901-0.134,1.741-0.103,1.741-0.704
			c0-0.632-0.436-0.726-0.953-0.726c-0.561,0-0.923,0.229-0.976,0.808H222.65z M226.05,55.778c-0.25,0.217-0.767,0.228-1.224,0.311
			c-0.455,0.093-0.869,0.249-0.869,0.787c0,0.549,0.423,0.684,0.9,0.684c1.151,0,1.192-0.91,1.192-1.232V55.778z"/>
		<path fill="#737577" d="M230.4,53.042h1.078v0.984H230.4v2.652c0,0.499,0.125,0.623,0.623,0.623c0.154,0,0.3-0.01,0.455-0.041
			v1.15c-0.248,0.042-0.569,0.051-0.86,0.051c-0.902,0-1.689-0.207-1.689-1.275v-3.16h-0.892v-0.984h0.892v-1.607h1.472V53.042z"/>
		<path fill="#737577" d="M233.271,56.08c0.042,0.932,0.497,1.356,1.316,1.356c0.591,0,1.067-0.362,1.16-0.693h1.296
			c-0.415,1.263-1.296,1.803-2.509,1.803c-1.689,0-2.735-1.161-2.735-2.819c0-1.606,1.109-2.829,2.735-2.829
			c1.825,0,2.706,1.534,2.602,3.182H233.271z M235.663,55.146c-0.134-0.745-0.454-1.14-1.17-1.14c-0.933,0-1.202,0.726-1.223,1.14
			H235.663z"/>
		<path fill="#737577" d="M237.527,56.805h1.628v1.595h-1.628V56.805z"/>
	</g>
	<g>
		<path fill="#00A4E4" d="M95.891,17.466h10.688c4.324,0,7.25,1.399,7.25,5.629c0,2.226-1.113,3.785-3.084,4.739
			c2.766,0.795,4.166,2.925,4.166,5.757c0,4.611-3.913,6.583-8.016,6.583H95.891V17.466z M100.884,26.658h5.057
			c1.75,0,3.054-0.795,3.054-2.704c0-2.161-1.654-2.607-3.435-2.607h-4.677V26.658z M100.884,36.294h5.344
			c1.972,0,3.689-0.636,3.689-2.99c0-2.322-1.464-3.244-3.594-3.244h-5.439V36.294z"/>
		<path fill="#00A4E4" d="M131.513,25.099c-0.318-2.258-2.481-3.975-4.963-3.975c-4.483,0-6.169,3.816-6.169,7.792
			c0,3.784,1.686,7.601,6.169,7.601c3.054,0,4.77-2.099,5.152-5.089h4.835c-0.509,5.662-4.421,9.287-9.987,9.287
			c-7.029,0-11.163-5.248-11.163-11.799c0-6.742,4.133-11.99,11.163-11.99c4.993,0,9.192,2.927,9.794,8.174H131.513z"/>
	</g>
	<g>
		<path d="M149.671,29.012c-0.412-2.068-1.846-3.277-4.07-3.277c-3.911,0-5.121,3.086-5.121,6.425c0,3.021,1.368,6.011,4.803,6.011
			c2.608,0,4.166-1.527,4.517-4.007h2.768c-0.605,4.007-3.118,6.393-7.254,6.393c-5.024,0-7.694-3.499-7.694-8.396
			c0-4.931,2.545-8.81,7.76-8.81c3.722,0,6.712,1.749,7.092,5.662H149.671z"/>
		<path d="M168.563,40.111c-0.477,0.286-1.083,0.445-1.94,0.445c-1.399,0-2.29-0.763-2.29-2.545
			c-1.495,1.75-3.498,2.545-5.788,2.545c-2.989,0-5.438-1.336-5.438-4.611c0-3.722,2.767-4.517,5.566-5.057
			c2.989-0.572,5.534-0.381,5.534-2.417c0-2.354-1.94-2.736-3.659-2.736c-2.29,0-3.976,0.7-4.104,3.117h-2.703
			c0.159-4.07,3.309-5.501,6.967-5.501c2.957,0,6.169,0.668,6.169,4.517v8.459c0,1.272,0,1.845,0.859,1.845
			c0.221,0,0.478-0.032,0.827-0.16V40.111z M164.175,31.683c-1.049,0.763-3.085,0.795-4.898,1.113
			c-1.781,0.318-3.309,0.954-3.309,2.957c0,1.782,1.527,2.418,3.182,2.418c3.561,0,5.025-2.226,5.025-3.722V31.683z"/>
		<path d="M169.483,23.731h2.546v2.417h0.063c1.207-1.845,3.053-2.799,5.311-2.799c2.003,0,3.849,0.795,4.517,2.799
			c1.114-1.75,3.053-2.799,5.152-2.799c3.275,0,5.469,1.368,5.469,4.771v12.053h-2.702V29.393c0-2.035-0.541-3.658-3.18-3.658
			c-2.608,0-4.294,1.655-4.294,4.199v10.24h-2.703V29.393c0-2.13-0.669-3.658-3.085-3.658c-3.213,0-4.389,2.958-4.389,4.199v10.24
			h-2.705V23.731z"/>
		<path d="M194.482,23.731h2.704v2.227h0.063c0.891-1.813,2.989-2.608,5.246-2.608c5.058,0,7.57,4.007,7.57,8.65
			c0,4.644-2.48,8.556-7.505,8.556c-1.686,0-4.104-0.637-5.312-2.576h-0.063v8.492h-2.704V23.731z M202.116,25.735
			c-3.626,0-5.024,3.117-5.024,6.202c0,3.244,1.461,6.234,5.183,6.234c3.689,0,4.93-3.148,4.93-6.361
			C207.204,28.724,205.613,25.735,202.116,25.735z"/>
		<path d="M224.474,40.174h-2.546v-2.607h-0.062c-1.146,2.036-2.99,2.989-5.344,2.989c-4.324,0-5.66-2.48-5.66-6.011V23.731h2.703
			v11.132c0,2.003,1.272,3.308,3.339,3.308c3.277,0,4.867-2.195,4.867-5.152v-9.287h2.703V40.174z"/>
		<path d="M228.609,34.99c0.095,2.417,2.193,3.181,4.418,3.181c1.688,0,3.976-0.382,3.976-2.449c0-2.099-2.671-2.448-5.373-3.053
			c-2.673-0.604-5.375-1.495-5.375-4.643c0-3.308,3.277-4.675,6.139-4.675c3.625,0,6.519,1.145,6.741,5.153h-2.703
			c-0.19-2.1-2.036-2.768-3.815-2.768c-1.623,0-3.499,0.446-3.499,2.1c0,1.94,2.861,2.258,5.374,2.862
			c2.704,0.604,5.375,1.495,5.375,4.675c0,3.913-3.656,5.185-6.996,5.185c-3.689,0-6.806-1.495-6.965-5.566H228.609z"/>
	</g>
	<g>
		<path fill="#808285" d="M4.774,2.43c0,1.199-0.97,2.168-2.167,2.168S0.441,3.628,0.441,2.43c0-1.194,0.97-2.166,2.167-2.166
			S4.774,1.235,4.774,2.43"/>
		<path fill="#808285" d="M20.275,7.599c0,1.196-0.969,2.167-2.166,2.167c-1.196,0-2.167-0.971-2.167-2.167
			c0-1.199,0.971-2.167,2.167-2.167C19.306,5.432,20.275,6.4,20.275,7.599"/>
		<path fill="#808285" d="M25.442,17.932c0,1.197-0.97,2.167-2.167,2.167c-1.197,0-2.166-0.97-2.166-2.167
			c0-1.198,0.969-2.168,2.166-2.168C24.472,15.764,25.442,16.734,25.442,17.932"/>
		<path fill="#808285" d="M30.609,43.764c0,1.199-0.97,2.167-2.167,2.167c-1.196,0-2.165-0.969-2.165-2.167
			c0-1.194,0.969-2.166,2.165-2.166C29.64,41.599,30.609,42.57,30.609,43.764"/>
		<path fill="#808285" d="M30.609,23.099c0,1.196-0.97,2.166-2.167,2.166c-1.196,0-2.165-0.97-2.165-2.166
			c0-1.198,0.969-2.168,2.165-2.168C29.64,20.931,30.609,21.9,30.609,23.099"/>
		<path fill="#808285" d="M30.609,2.43c0,1.199-0.97,2.168-2.167,2.168c-1.196,0-2.165-0.969-2.165-2.168
			c0-1.194,0.969-2.166,2.165-2.166C29.64,0.264,30.609,1.235,30.609,2.43"/>
		<path fill="#808285" d="M40.943,74.768c0,1.197-0.97,2.166-2.167,2.166c-1.195,0-2.165-0.968-2.165-2.166
			c0-1.197,0.97-2.169,2.165-2.169C39.973,72.599,40.943,73.571,40.943,74.768"/>
		<path fill="#808285" d="M40.943,64.434c0,1.198-0.97,2.167-2.167,2.167c-1.195,0-2.165-0.969-2.165-2.167
			c0-1.197,0.97-2.165,2.165-2.165C39.973,62.269,40.943,63.237,40.943,64.434"/>
		<path fill="#808285" d="M40.943,43.764c0,1.199-0.97,2.167-2.167,2.167c-1.195,0-2.165-0.969-2.165-2.167
			c0-1.194,0.97-2.166,2.165-2.166C39.973,41.599,40.943,42.57,40.943,43.764"/>
		<path fill="#808285" d="M40.943,33.432c0,1.195-0.97,2.166-2.167,2.166c-1.195,0-2.165-0.971-2.165-2.166
			c0-1.197,0.97-2.167,2.165-2.167C39.973,31.265,40.943,32.235,40.943,33.432"/>
		<path fill="#808285" d="M40.943,17.932c0,1.197-0.97,2.167-2.167,2.167c-1.195,0-2.165-0.97-2.165-2.167
			c0-1.198,0.97-2.168,2.165-2.168C39.973,15.764,40.943,16.734,40.943,17.932"/>
		<path fill="#808285" d="M40.943,7.599c0,1.196-0.97,2.167-2.167,2.167c-1.195,0-2.165-0.971-2.165-2.167
			c0-1.199,0.97-2.167,2.165-2.167C39.973,5.432,40.943,6.4,40.943,7.599"/>
		<path fill="#808285" d="M46.109,48.932c0,1.198-0.969,2.167-2.165,2.167c-1.197,0-2.168-0.97-2.168-2.167
			c0-1.197,0.971-2.167,2.168-2.167C45.14,46.765,46.109,47.735,46.109,48.932"/>
		<path fill="#808285" d="M46.109,23.099c0,1.196-0.969,2.166-2.165,2.166c-1.197,0-2.168-0.97-2.168-2.166
			c0-1.198,0.971-2.168,2.168-2.168C45.14,20.931,46.109,21.9,46.109,23.099"/>
		<path fill="#808285" d="M51.276,69.601c0,1.196-0.969,2.167-2.166,2.167c-1.197,0-2.167-0.971-2.167-2.167
			c0-1.197,0.97-2.167,2.167-2.167C50.308,67.434,51.276,68.403,51.276,69.601"/>
		<path fill="#808285" d="M51.276,43.764c0,1.199-0.969,2.167-2.166,2.167c-1.197,0-2.167-0.969-2.167-2.167
			c0-1.194,0.97-2.166,2.167-2.166C50.308,41.599,51.276,42.57,51.276,43.764"/>
		<path fill="#808285" d="M51.276,12.764c0,1.197-0.969,2.167-2.166,2.167c-1.197,0-2.167-0.971-2.167-2.167
			c0-1.195,0.97-2.166,2.167-2.166C50.308,10.598,51.276,11.568,51.276,12.764"/>
		<path fill="#808285" d="M51.276,2.43c0,1.199-0.969,2.168-2.166,2.168c-1.197,0-2.167-0.969-2.167-2.168
			c0-1.194,0.97-2.166,2.167-2.166C50.308,0.264,51.276,1.235,51.276,2.43"/>
		<path fill="#808285" d="M56.444,28.265c0,1.197-0.97,2.167-2.168,2.167c-1.195,0-2.165-0.97-2.165-2.167s0.97-2.166,2.165-2.166
			C55.474,26.099,56.444,27.068,56.444,28.265"/>
		<path fill="#808285" d="M61.611,74.768c0,1.197-0.969,2.166-2.167,2.166c-1.195,0-2.165-0.968-2.165-2.166
			c0-1.197,0.97-2.169,2.165-2.169C60.642,72.599,61.611,73.571,61.611,74.768"/>
		<path fill="#808285" d="M61.611,64.434c0,1.198-0.969,2.167-2.167,2.167c-1.195,0-2.165-0.969-2.165-2.167
			c0-1.197,0.97-2.165,2.165-2.165C60.642,62.269,61.611,63.237,61.611,64.434"/>
		<path fill="#808285" d="M61.611,48.932c0,1.198-0.969,2.167-2.167,2.167c-1.195,0-2.165-0.97-2.165-2.167
			c0-1.197,0.97-2.167,2.165-2.167C60.642,46.765,61.611,47.735,61.611,48.932"/>
		<path fill="#808285" d="M61.611,12.764c0,1.197-0.969,2.167-2.167,2.167c-1.195,0-2.165-0.971-2.165-2.167
			c0-1.195,0.97-2.166,2.165-2.166C60.642,10.598,61.611,11.568,61.611,12.764"/>
		<path fill="#808285" d="M61.611,7.599c0,1.196-0.969,2.167-2.167,2.167c-1.195,0-2.165-0.971-2.165-2.167
			c0-1.199,0.97-2.167,2.165-2.167C60.642,5.432,61.611,6.4,61.611,7.599"/>
		<path fill="#808285" d="M66.777,38.599c0,1.196-0.97,2.166-2.167,2.166c-1.195,0-2.166-0.97-2.166-2.166
			c0-1.199,0.971-2.167,2.166-2.167C65.808,36.433,66.777,37.4,66.777,38.599"/>
		<path fill="#808285" d="M71.945,54.099c0,1.196-0.971,2.167-2.167,2.167s-2.167-0.971-2.167-2.167c0-1.196,0.97-2.167,2.167-2.167
			S71.945,52.903,71.945,54.099"/>
		<path fill="#808285" d="M77.111,74.768c0,1.197-0.969,2.166-2.167,2.166c-1.195,0-2.166-0.968-2.166-2.166
			c0-1.197,0.97-2.169,2.166-2.169C76.142,72.599,77.111,73.571,77.111,74.768"/>
		<path fill="#808285" d="M77.111,69.601c0,1.196-0.969,2.167-2.167,2.167c-1.195,0-2.166-0.971-2.166-2.167
			c0-1.197,0.97-2.167,2.166-2.167C76.142,67.434,77.111,68.403,77.111,69.601"/>
		<path fill="#808285" d="M82.278,64.434c0,1.198-0.97,2.167-2.167,2.167c-1.196,0-2.165-0.969-2.165-2.167
			c0-1.197,0.969-2.165,2.165-2.165C81.308,62.269,82.278,63.237,82.278,64.434"/>
		<path fill="#808285" d="M87.445,64.434c0,1.198-0.97,2.167-2.167,2.167c-1.197,0-2.167-0.969-2.167-2.167
			c0-1.197,0.969-2.165,2.167-2.165C86.475,62.269,87.445,63.237,87.445,64.434"/>
		<path fill="#808285" d="M15.109,2.43c0,1.199-0.971,2.168-2.168,2.168c-1.195,0-2.166-0.969-2.166-2.168
			c0-1.194,0.97-2.166,2.166-2.166C14.139,0.264,15.109,1.235,15.109,2.43"/>
		<path fill="#808285" d="M20.275,12.764c0,1.197-0.969,2.167-2.166,2.167c-1.196,0-2.167-0.971-2.167-2.167
			c0-1.195,0.971-2.166,2.167-2.166C19.306,10.598,20.275,11.568,20.275,12.764"/>
		<path fill="#808285" d="M25.442,23.099c0,1.196-0.97,2.166-2.167,2.166c-1.197,0-2.166-0.97-2.166-2.166
			c0-1.198,0.969-2.168,2.166-2.168C24.472,20.931,25.442,21.9,25.442,23.099"/>
		<path fill="#808285" d="M25.442,7.599c0,1.196-0.97,2.167-2.167,2.167c-1.197,0-2.166-0.971-2.166-2.167
			c0-1.199,0.969-2.167,2.166-2.167C24.472,5.432,25.442,6.4,25.442,7.599"/>
		<path fill="#808285" d="M30.609,33.432c0,1.195-0.97,2.166-2.167,2.166c-1.196,0-2.165-0.971-2.165-2.166
			c0-1.197,0.969-2.167,2.165-2.167C29.64,31.265,30.609,32.235,30.609,33.432"/>
		<path fill="#808285" d="M30.609,7.599c0,1.196-0.97,2.167-2.167,2.167c-1.196,0-2.165-0.971-2.165-2.167
			c0-1.199,0.969-2.167,2.165-2.167C29.64,5.432,30.609,6.4,30.609,7.599"/>
		<path fill="#808285" d="M35.777,43.764c0,1.199-0.97,2.167-2.168,2.167c-1.195,0-2.165-0.969-2.165-2.167
			c0-1.194,0.97-2.166,2.165-2.166C34.807,41.599,35.777,42.57,35.777,43.764"/>
		<path fill="#808285" d="M35.777,28.265c0,1.197-0.97,2.167-2.168,2.167c-1.195,0-2.165-0.97-2.165-2.167s0.97-2.166,2.165-2.166
			C34.807,26.099,35.777,27.068,35.777,28.265"/>
		<path fill="#808285" d="M35.777,23.099c0,1.196-0.97,2.166-2.168,2.166c-1.195,0-2.165-0.97-2.165-2.166
			c0-1.198,0.97-2.168,2.165-2.168C34.807,20.931,35.777,21.9,35.777,23.099"/>
		<path fill="#808285" d="M35.777,17.932c0,1.197-0.97,2.167-2.168,2.167c-1.195,0-2.165-0.97-2.165-2.167
			c0-1.198,0.97-2.168,2.165-2.168C34.807,15.764,35.777,16.734,35.777,17.932"/>
		<path fill="#808285" d="M35.777,2.43c0,1.199-0.97,2.168-2.168,2.168c-1.195,0-2.165-0.969-2.165-2.168
			c0-1.194,0.97-2.166,2.165-2.166C34.807,0.264,35.777,1.235,35.777,2.43"/>
		<path fill="#808285" d="M40.943,59.266c0,1.196-0.97,2.167-2.167,2.167c-1.195,0-2.165-0.972-2.165-2.167
			c0-1.197,0.97-2.166,2.165-2.166C39.973,57.101,40.943,58.069,40.943,59.266"/>
		<path fill="#808285" d="M40.943,54.099c0,1.196-0.97,2.167-2.167,2.167c-1.195,0-2.165-0.971-2.165-2.167
			c0-1.196,0.97-2.167,2.165-2.167C39.973,51.932,40.943,52.903,40.943,54.099"/>
		<path fill="#808285" d="M40.943,48.932c0,1.198-0.97,2.167-2.167,2.167c-1.195,0-2.165-0.97-2.165-2.167
			c0-1.197,0.97-2.167,2.165-2.167C39.973,46.765,40.943,47.735,40.943,48.932"/>
		<path fill="#808285" d="M46.109,64.434c0,1.198-0.969,2.167-2.165,2.167c-1.197,0-2.168-0.969-2.168-2.167
			c0-1.197,0.971-2.165,2.168-2.165C45.14,62.269,46.109,63.237,46.109,64.434"/>
		<path fill="#808285" d="M46.109,59.266c0,1.196-0.969,2.167-2.165,2.167c-1.197,0-2.168-0.972-2.168-2.167
			c0-1.197,0.971-2.166,2.168-2.166C45.14,57.101,46.109,58.069,46.109,59.266"/>
		<path fill="#808285" d="M46.109,38.599c0,1.196-0.969,2.166-2.165,2.166c-1.197,0-2.168-0.97-2.168-2.166
			c0-1.199,0.971-2.167,2.168-2.167C45.14,36.433,46.109,37.4,46.109,38.599"/>
		<path fill="#808285" d="M46.109,28.265c0,1.197-0.969,2.167-2.165,2.167c-1.197,0-2.168-0.97-2.168-2.167s0.971-2.166,2.168-2.166
			C45.14,26.099,46.109,27.068,46.109,28.265"/>
		<path fill="#808285" d="M46.109,12.764c0,1.197-0.969,2.167-2.165,2.167c-1.197,0-2.168-0.971-2.168-2.167
			c0-1.195,0.971-2.166,2.168-2.166C45.14,10.598,46.109,11.568,46.109,12.764"/>
		<path fill="#808285" d="M46.109,7.599c0,1.196-0.969,2.167-2.165,2.167c-1.197,0-2.168-0.971-2.168-2.167
			c0-1.199,0.971-2.167,2.168-2.167C45.14,5.432,46.109,6.4,46.109,7.599"/>
		<path fill="#808285" d="M51.276,54.099c0,1.196-0.969,2.167-2.166,2.167c-1.197,0-2.167-0.971-2.167-2.167
			c0-1.196,0.97-2.167,2.167-2.167C50.308,51.932,51.276,52.903,51.276,54.099"/>
		<path fill="#808285" d="M51.276,38.599c0,1.196-0.969,2.166-2.166,2.166c-1.197,0-2.167-0.97-2.167-2.166
			c0-1.199,0.97-2.167,2.167-2.167C50.308,36.433,51.276,37.4,51.276,38.599"/>
		<path fill="#808285" d="M56.444,64.434c0,1.198-0.97,2.167-2.168,2.167c-1.195,0-2.165-0.969-2.165-2.167
			c0-1.197,0.97-2.165,2.165-2.165C55.474,62.269,56.444,63.237,56.444,64.434"/>
		<path fill="#808285" d="M56.444,54.099c0,1.196-0.97,2.167-2.168,2.167c-1.195,0-2.165-0.971-2.165-2.167
			c0-1.196,0.97-2.167,2.165-2.167C55.474,51.932,56.444,52.903,56.444,54.099"/>
		<path fill="#808285" d="M56.444,48.932c0,1.198-0.97,2.167-2.168,2.167c-1.195,0-2.165-0.97-2.165-2.167
			c0-1.197,0.97-2.167,2.165-2.167C55.474,46.765,56.444,47.735,56.444,48.932"/>
		<path fill="#808285" d="M56.444,43.764c0,1.199-0.97,2.167-2.168,2.167c-1.195,0-2.165-0.969-2.165-2.167
			c0-1.194,0.97-2.166,2.165-2.166C55.474,41.599,56.444,42.57,56.444,43.764"/>
		<path fill="#808285" d="M56.444,33.432c0,1.195-0.97,2.166-2.168,2.166c-1.195,0-2.165-0.971-2.165-2.166
			c0-1.197,0.97-2.167,2.165-2.167C55.474,31.265,56.444,32.235,56.444,33.432"/>
		<path fill="#808285" d="M56.444,23.099c0,1.196-0.97,2.166-2.168,2.166c-1.195,0-2.165-0.97-2.165-2.166
			c0-1.198,0.97-2.168,2.165-2.168C55.474,20.931,56.444,21.9,56.444,23.099"/>
		<path fill="#808285" d="M56.444,17.932c0,1.197-0.97,2.167-2.168,2.167c-1.195,0-2.165-0.97-2.165-2.167
			c0-1.198,0.97-2.168,2.165-2.168C55.474,15.764,56.444,16.734,56.444,17.932"/>
		<path fill="#808285" d="M56.444,2.43c0,1.199-0.97,2.168-2.168,2.168c-1.195,0-2.165-0.969-2.165-2.168
			c0-1.194,0.97-2.166,2.165-2.166C55.474,0.264,56.444,1.235,56.444,2.43"/>
		<path fill="#808285" d="M61.611,54.099c0,1.196-0.969,2.167-2.167,2.167c-1.195,0-2.165-0.971-2.165-2.167
			c0-1.196,0.97-2.167,2.165-2.167C60.642,51.932,61.611,52.903,61.611,54.099"/>
		<path fill="#808285" d="M61.611,38.599c0,1.196-0.969,2.166-2.167,2.166c-1.195,0-2.165-0.97-2.165-2.166
			c0-1.199,0.97-2.167,2.165-2.167C60.642,36.433,61.611,37.4,61.611,38.599"/>
		<path fill="#808285" d="M61.611,28.265c0,1.197-0.969,2.167-2.167,2.167c-1.195,0-2.165-0.97-2.165-2.167s0.97-2.166,2.165-2.166
			C60.642,26.099,61.611,27.068,61.611,28.265"/>
		<path fill="#808285" d="M61.611,17.932c0,1.197-0.969,2.167-2.167,2.167c-1.195,0-2.165-0.97-2.165-2.167
			c0-1.198,0.97-2.168,2.165-2.168C60.642,15.764,61.611,16.734,61.611,17.932"/>
		<path fill="#808285" d="M66.777,69.601c0,1.196-0.97,2.167-2.167,2.167c-1.195,0-2.166-0.971-2.166-2.167
			c0-1.197,0.971-2.167,2.166-2.167C65.808,67.434,66.777,68.403,66.777,69.601"/>
		<path fill="#808285" d="M66.777,54.099c0,1.196-0.97,2.167-2.167,2.167c-1.195,0-2.166-0.971-2.166-2.167
			c0-1.196,0.971-2.167,2.166-2.167C65.808,51.932,66.777,52.903,66.777,54.099"/>
		<path fill="#808285" d="M66.777,28.265c0,1.197-0.97,2.167-2.167,2.167c-1.195,0-2.166-0.97-2.166-2.167s0.971-2.166,2.166-2.166
			C65.808,26.099,66.777,27.068,66.777,28.265"/>
		<path fill="#808285" d="M66.777,23.099c0,1.196-0.97,2.166-2.167,2.166c-1.195,0-2.166-0.97-2.166-2.166
			c0-1.198,0.971-2.168,2.166-2.168C65.808,20.931,66.777,21.9,66.777,23.099"/>
		<path fill="#808285" d="M66.777,12.764c0,1.197-0.97,2.167-2.167,2.167c-1.195,0-2.166-0.971-2.166-2.167
			c0-1.195,0.971-2.166,2.166-2.166C65.808,10.598,66.777,11.568,66.777,12.764"/>
		<path fill="#808285" d="M66.777,7.599c0,1.196-0.97,2.167-2.167,2.167c-1.195,0-2.166-0.971-2.166-2.167
			c0-1.199,0.971-2.167,2.166-2.167C65.808,5.432,66.777,6.4,66.777,7.599"/>
		<path fill="#808285" d="M71.945,69.601c0,1.196-0.971,2.167-2.167,2.167s-2.167-0.971-2.167-2.167c0-1.197,0.97-2.167,2.167-2.167
			S71.945,68.403,71.945,69.601"/>
		<path fill="#808285" d="M71.945,48.932c0,1.198-0.971,2.167-2.167,2.167s-2.167-0.97-2.167-2.167c0-1.197,0.97-2.167,2.167-2.167
			S71.945,47.735,71.945,48.932"/>
		<path fill="#808285" d="M77.111,64.434c0,1.198-0.969,2.167-2.167,2.167c-1.195,0-2.166-0.969-2.166-2.167
			c0-1.197,0.97-2.165,2.166-2.165C76.142,62.269,77.111,63.237,77.111,64.434"/>
		<path fill="#808285" d="M82.278,74.768c0,1.197-0.97,2.166-2.167,2.166c-1.196,0-2.165-0.968-2.165-2.166
			c0-1.197,0.969-2.169,2.165-2.169C81.308,72.599,82.278,73.571,82.278,74.768"/>
		<path fill="#808285" d="M82.278,59.266c0,1.196-0.97,2.167-2.167,2.167c-1.196,0-2.165-0.972-2.165-2.167
			c0-1.197,0.969-2.166,2.165-2.166C81.308,57.101,82.278,58.069,82.278,59.266"/>
		<path fill="#808285" d="M87.445,69.601c0,1.196-0.97,2.167-2.167,2.167c-1.197,0-2.167-0.971-2.167-2.167
			c0-1.197,0.969-2.167,2.167-2.167C86.475,67.434,87.445,68.403,87.445,69.601"/>
		<path fill="#808285" d="M92.613,69.601c0,1.196-0.97,2.167-2.168,2.167c-1.196,0-2.167-0.971-2.167-2.167
			c0-1.197,0.971-2.167,2.167-2.167C91.643,67.434,92.613,68.403,92.613,69.601"/>
		<path fill="#808285" d="M20.275,54.099c0,1.196-0.969,2.167-2.166,2.167c-1.196,0-2.167-0.971-2.167-2.167
			c0-1.196,0.971-2.167,2.167-2.167C19.306,51.932,20.275,52.903,20.275,54.099"/>
		<path fill="#808285" d="M20.275,48.932c0,1.198-0.969,2.167-2.166,2.167c-1.196,0-2.167-0.97-2.167-2.167
			c0-1.197,0.971-2.167,2.167-2.167C19.306,46.765,20.275,47.735,20.275,48.932"/>
		<path fill="#808285" d="M20.275,2.43c0,1.199-0.969,2.168-2.166,2.168c-1.196,0-2.167-0.969-2.167-2.168
			c0-1.194,0.971-2.166,2.167-2.166C19.306,0.264,20.275,1.235,20.275,2.43"/>
		<path fill="#808285" d="M30.609,17.932c0,1.197-0.97,2.167-2.167,2.167c-1.196,0-2.165-0.97-2.165-2.167
			c0-1.198,0.969-2.168,2.165-2.168C29.64,15.764,30.609,16.734,30.609,17.932"/>
		<path fill="#808285" d="M30.609,12.764c0,1.197-0.97,2.167-2.167,2.167c-1.196,0-2.165-0.971-2.165-2.167
			c0-1.195,0.969-2.166,2.165-2.166C29.64,10.598,30.609,11.568,30.609,12.764"/>
		<path fill="#808285" d="M35.777,48.932c0,1.198-0.97,2.167-2.168,2.167c-1.195,0-2.165-0.97-2.165-2.167
			c0-1.197,0.97-2.167,2.165-2.167C34.807,46.765,35.777,47.735,35.777,48.932"/>
		<path fill="#808285" d="M35.777,38.599c0,1.196-0.97,2.166-2.168,2.166c-1.195,0-2.165-0.97-2.165-2.166
			c0-1.199,0.97-2.167,2.165-2.167C34.807,36.433,35.777,37.4,35.777,38.599"/>
		<path fill="#808285" d="M35.777,7.599c0,1.196-0.97,2.167-2.168,2.167c-1.195,0-2.165-0.971-2.165-2.167
			c0-1.199,0.97-2.167,2.165-2.167C34.807,5.432,35.777,6.4,35.777,7.599"/>
		<path fill="#808285" d="M40.943,28.265c0,1.197-0.97,2.167-2.167,2.167c-1.195,0-2.165-0.97-2.165-2.167s0.97-2.166,2.165-2.166
			C39.973,26.099,40.943,27.068,40.943,28.265"/>
		<path fill="#808285" d="M46.109,79.934c0,1.197-0.969,2.168-2.165,2.168c-1.197,0-2.168-0.971-2.168-2.168
			s0.971-2.166,2.168-2.166C45.14,77.769,46.109,78.737,46.109,79.934"/>
		<path fill="#808285" d="M46.109,33.432c0,1.195-0.969,2.166-2.165,2.166c-1.197,0-2.168-0.971-2.168-2.166
			c0-1.197,0.971-2.167,2.168-2.167C45.14,31.265,46.109,32.235,46.109,33.432"/>
		<path fill="#808285" d="M46.109,17.932c0,1.197-0.969,2.167-2.165,2.167c-1.197,0-2.168-0.97-2.168-2.167
			c0-1.198,0.971-2.168,2.168-2.168C45.14,15.764,46.109,16.734,46.109,17.932"/>
		<path fill="#808285" d="M46.109,2.43c0,1.199-0.969,2.168-2.165,2.168c-1.197,0-2.168-0.969-2.168-2.168
			c0-1.194,0.971-2.166,2.168-2.166C45.14,0.264,46.109,1.235,46.109,2.43"/>
		<path fill="#808285" d="M51.276,64.434c0,1.198-0.969,2.167-2.166,2.167c-1.197,0-2.167-0.969-2.167-2.167
			c0-1.197,0.97-2.165,2.167-2.165C50.308,62.269,51.276,63.237,51.276,64.434"/>
		<path fill="#808285" d="M51.276,48.932c0,1.198-0.969,2.167-2.166,2.167c-1.197,0-2.167-0.97-2.167-2.167
			c0-1.197,0.97-2.167,2.167-2.167C50.308,46.765,51.276,47.735,51.276,48.932"/>
		<path fill="#808285" d="M51.276,23.099c0,1.196-0.969,2.166-2.166,2.166c-1.197,0-2.167-0.97-2.167-2.166
			c0-1.198,0.97-2.168,2.167-2.168C50.308,20.931,51.276,21.9,51.276,23.099"/>
		<path fill="#808285" d="M51.276,7.599c0,1.196-0.969,2.167-2.166,2.167c-1.197,0-2.167-0.971-2.167-2.167
			c0-1.199,0.97-2.167,2.167-2.167C50.308,5.432,51.276,6.4,51.276,7.599"/>
		<path fill="#808285" d="M56.444,59.266c0,1.196-0.97,2.167-2.168,2.167c-1.195,0-2.165-0.972-2.165-2.167
			c0-1.197,0.97-2.166,2.165-2.166C55.474,57.101,56.444,58.069,56.444,59.266"/>
		<path fill="#808285" d="M56.444,12.764c0,1.197-0.97,2.167-2.168,2.167c-1.195,0-2.165-0.971-2.165-2.167
			c0-1.195,0.97-2.166,2.165-2.166C55.474,10.598,56.444,11.568,56.444,12.764"/>
		<path fill="#808285" d="M61.611,43.764c0,1.199-0.969,2.167-2.167,2.167c-1.195,0-2.165-0.969-2.165-2.167
			c0-1.194,0.97-2.166,2.165-2.166C60.642,41.599,61.611,42.57,61.611,43.764"/>
		<path fill="#808285" d="M61.611,23.099c0,1.196-0.969,2.166-2.167,2.166c-1.195,0-2.165-0.97-2.165-2.166
			c0-1.198,0.97-2.168,2.165-2.168C60.642,20.931,61.611,21.9,61.611,23.099"/>
		<path fill="#808285" d="M61.611,2.43c0,1.199-0.969,2.168-2.167,2.168c-1.195,0-2.165-0.969-2.165-2.168
			c0-1.194,0.97-2.166,2.165-2.166C60.642,0.264,61.611,1.235,61.611,2.43"/>
		<path fill="#808285" d="M66.777,74.768c0,1.197-0.97,2.166-2.167,2.166c-1.195,0-2.166-0.968-2.166-2.166
			c0-1.197,0.971-2.169,2.166-2.169C65.808,72.599,66.777,73.571,66.777,74.768"/>
		<path fill="#808285" d="M66.777,59.266c0,1.196-0.97,2.167-2.167,2.167c-1.195,0-2.166-0.972-2.166-2.167
			c0-1.197,0.971-2.166,2.166-2.166C65.808,57.101,66.777,58.069,66.777,59.266"/>
		<path fill="#808285" d="M66.777,43.764c0,1.199-0.97,2.167-2.167,2.167c-1.195,0-2.166-0.969-2.166-2.167
			c0-1.194,0.971-2.166,2.166-2.166C65.808,41.599,66.777,42.57,66.777,43.764"/>
		<path fill="#808285" d="M66.777,2.43c0,1.199-0.97,2.168-2.167,2.168c-1.195,0-2.166-0.969-2.166-2.168
			c0-1.194,0.971-2.166,2.166-2.166C65.808,0.264,66.777,1.235,66.777,2.43"/>
		<path fill="#808285" d="M77.111,59.266c0,1.196-0.969,2.167-2.167,2.167c-1.195,0-2.166-0.972-2.166-2.167
			c0-1.197,0.97-2.166,2.166-2.166C76.142,57.101,77.111,58.069,77.111,59.266"/>
		<path fill="#808285" d="M77.111,54.099c0,1.196-0.969,2.167-2.167,2.167c-1.195,0-2.166-0.971-2.166-2.167
			c0-1.196,0.97-2.167,2.166-2.167C76.142,51.932,77.111,52.903,77.111,54.099"/>
		<path fill="#808285" d="M40.943,38.599c0,1.196-0.97,2.166-2.167,2.166c-1.195,0-2.165-0.97-2.165-2.166
			c0-1.199,0.97-2.167,2.165-2.167C39.973,36.433,40.943,37.4,40.943,38.599"/>
		<path fill="#808285" d="M61.611,59.266c0,1.196-0.969,2.167-2.167,2.167c-1.195,0-2.165-0.972-2.165-2.167
			c0-1.197,0.97-2.166,2.165-2.166C60.642,57.101,61.611,58.069,61.611,59.266"/>
		<path fill="#808285" d="M46.109,54.099c0,1.196-0.969,2.167-2.165,2.167c-1.197,0-2.168-0.971-2.168-2.167
			c0-1.196,0.971-2.167,2.168-2.167C45.14,51.932,46.109,52.903,46.109,54.099"/>
		<path fill="#808285" d="M56.444,74.768c0,1.197-0.97,2.166-2.168,2.166c-1.195,0-2.165-0.968-2.165-2.166
			c0-1.197,0.97-2.169,2.165-2.169C55.474,72.599,56.444,73.571,56.444,74.768"/>
		<path fill="#808285" d="M30.609,28.265c0,1.197-0.97,2.167-2.167,2.167c-1.196,0-2.165-0.97-2.165-2.167s0.969-2.166,2.165-2.166
			C29.64,26.099,30.609,27.068,30.609,28.265"/>
		<path fill="#808285" d="M35.777,69.601c0,1.196-0.97,2.167-2.168,2.167c-1.195,0-2.165-0.971-2.165-2.167
			c0-1.197,0.97-2.167,2.165-2.167C34.807,67.434,35.777,68.403,35.777,69.601"/>
		<path fill="#808285" d="M40.943,12.764c0,1.197-0.97,2.167-2.167,2.167c-1.195,0-2.165-0.971-2.165-2.167
			c0-1.195,0.97-2.166,2.165-2.166C39.973,10.598,40.943,11.568,40.943,12.764"/>
		<path fill="#808285" d="M51.276,28.265c0,1.197-0.969,2.167-2.166,2.167c-1.197,0-2.167-0.97-2.167-2.167s0.97-2.166,2.167-2.166
			C50.308,26.099,51.276,27.068,51.276,28.265"/>
		<path fill="#808285" d="M51.276,79.934c0,1.197-0.969,2.168-2.166,2.168c-1.197,0-2.167-0.971-2.167-2.168s0.97-2.166,2.167-2.166
			C50.308,77.769,51.276,78.737,51.276,79.934"/>
		<path fill="#808285" d="M82.278,69.601c0,1.196-0.97,2.167-2.167,2.167c-1.196,0-2.165-0.971-2.165-2.167
			c0-1.197,0.969-2.167,2.165-2.167C81.308,67.434,82.278,68.403,82.278,69.601"/>
		<path fill="#808285" d="M35.777,54.099c0,1.196-0.97,2.167-2.168,2.167c-1.195,0-2.165-0.971-2.165-2.167
			c0-1.196,0.97-2.167,2.165-2.167C34.807,51.932,35.777,52.903,35.777,54.099"/>
		<path fill="#808285" d="M61.611,33.432c0,1.195-0.969,2.166-2.167,2.166c-1.195,0-2.165-0.971-2.165-2.166
			c0-1.197,0.97-2.167,2.165-2.167C60.642,31.265,61.611,32.235,61.611,33.432"/>
		<path fill="#808285" d="M51.276,17.932c0,1.197-0.969,2.167-2.166,2.167c-1.197,0-2.167-0.97-2.167-2.167
			c0-1.198,0.97-2.168,2.167-2.168C50.308,15.764,51.276,16.734,51.276,17.932"/>
		<path fill="#808285" d="M56.444,69.601c0,1.196-0.97,2.167-2.168,2.167c-1.195,0-2.165-0.971-2.165-2.167
			c0-1.197,0.97-2.167,2.165-2.167C55.474,67.434,56.444,68.403,56.444,69.601"/>
		<path fill="#808285" d="M71.945,64.434c0,1.198-0.971,2.167-2.167,2.167s-2.167-0.969-2.167-2.167c0-1.197,0.97-2.165,2.167-2.165
			S71.945,63.237,71.945,64.434"/>
		<path fill="#808285" d="M30.609,38.599c0,1.196-0.97,2.166-2.167,2.166c-1.196,0-2.165-0.97-2.165-2.166
			c0-1.199,0.969-2.167,2.165-2.167C29.64,36.433,30.609,37.4,30.609,38.599"/>
		<path fill="#808285" d="M92.613,64.434c0,1.198-0.97,2.167-2.168,2.167c-1.196,0-2.167-0.969-2.167-2.167
			c0-1.197,0.971-2.165,2.167-2.165C91.643,62.269,92.613,63.237,92.613,64.434"/>
		<path fill="#808285" d="M97.78,74.768c0,1.197-0.971,2.166-2.168,2.166c-1.196,0-2.165-0.968-2.165-2.166
			c0-1.197,0.969-2.169,2.165-2.169C96.809,72.599,97.78,73.571,97.78,74.768"/>
	</g>
	<g>
		<path fill="#50B848" d="M51.276,33.432c0,1.195-0.969,2.166-2.166,2.166c-1.197,0-2.167-0.971-2.167-2.166
			c0-1.197,0.97-2.167,2.167-2.167C50.308,31.265,51.276,32.235,51.276,33.432"/>
		<path fill="#50B848" d="M40.943,2.43c0,1.199-0.97,2.168-2.167,2.168c-1.195,0-2.165-0.969-2.165-2.168
			c0-1.194,0.97-2.166,2.165-2.166C39.973,0.264,40.943,1.235,40.943,2.43"/>
		<path fill="#50B848" d="M40.943,23.099c0,1.196-0.97,2.166-2.167,2.166c-1.195,0-2.165-0.97-2.165-2.166
			c0-1.198,0.97-2.168,2.165-2.168C39.973,20.931,40.943,21.9,40.943,23.099"/>
		<path fill="#50B848" d="M66.777,64.434c0,1.198-0.97,2.167-2.167,2.167c-1.195,0-2.166-0.969-2.166-2.167
			c0-1.197,0.971-2.165,2.166-2.165C65.808,62.269,66.777,63.237,66.777,64.434"/>
		<path fill="#50B848" d="M71.945,74.768c0,1.197-0.971,2.166-2.167,2.166s-2.167-0.968-2.167-2.166c0-1.197,0.97-2.169,2.167-2.169
			S71.945,73.571,71.945,74.768"/>
		<path fill="#50B848" d="M66.777,33.432c0,1.195-0.97,2.166-2.167,2.166c-1.195,0-2.166-0.971-2.166-2.166
			c0-1.197,0.971-2.167,2.166-2.167C65.808,31.265,66.777,32.235,66.777,33.432"/>
		<path fill="#50B848" d="M46.109,74.768c0,1.197-0.969,2.166-2.165,2.166c-1.197,0-2.168-0.968-2.168-2.166
			c0-1.197,0.971-2.169,2.168-2.169C45.14,72.599,46.109,73.571,46.109,74.768"/>
		<path fill="#50B848" d="M51.276,59.266c0,1.196-0.969,2.167-2.166,2.167c-1.197,0-2.167-0.972-2.167-2.167
			c0-1.197,0.97-2.166,2.167-2.166C50.308,57.101,51.276,58.069,51.276,59.266"/>
		<path fill="#50B848" d="M25.442,59.266c0,1.196-0.97,2.167-2.167,2.167c-1.197,0-2.166-0.972-2.166-2.167
			c0-1.197,0.969-2.166,2.166-2.166C24.472,57.101,25.442,58.069,25.442,59.266"/>
		<path fill="#50B848" d="M25.442,12.764c0,1.197-0.97,2.167-2.167,2.167c-1.197,0-2.166-0.971-2.166-2.167
			c0-1.195,0.969-2.166,2.166-2.166C24.472,10.598,25.442,11.568,25.442,12.764"/>
		<path fill="#50B848" d="M56.444,85.101c0,1.198-0.97,2.167-2.168,2.167c-1.195,0-2.165-0.969-2.165-2.167
			c0-1.196,0.97-2.166,2.165-2.166C55.474,82.935,56.444,83.905,56.444,85.101"/>
		<path fill="#50B848" d="M56.444,7.599c0,1.196-0.97,2.167-2.168,2.167c-1.195,0-2.165-0.971-2.165-2.167
			c0-1.199,0.97-2.167,2.165-2.167C55.474,5.432,56.444,6.4,56.444,7.599"/>
		<path fill="#50B848" d="M9.942,2.43c0,1.199-0.969,2.168-2.167,2.168c-1.197,0-2.167-0.969-2.167-2.168
			c0-1.194,0.97-2.166,2.167-2.166C8.973,0.264,9.942,1.235,9.942,2.43"/>
		<path fill="#50B848" d="M46.109,43.764c0,1.199-0.969,2.167-2.165,2.167c-1.197,0-2.168-0.969-2.168-2.167
			c0-1.194,0.971-2.166,2.168-2.166C45.14,41.599,46.109,42.57,46.109,43.764"/>
		<path fill="#50B848" d="M92.613,74.768c0,1.197-0.97,2.166-2.168,2.166c-1.196,0-2.167-0.968-2.167-2.166
			c0-1.197,0.971-2.169,2.167-2.169C91.643,72.599,92.613,73.571,92.613,74.768"/>
	</g>
	<g>
		<path fill="#00A4E4" d="M35.777,33.432c0,1.195-0.97,2.166-2.168,2.166c-1.195,0-2.165-0.971-2.165-2.166
			c0-1.197,0.97-2.167,2.165-2.167C34.807,31.265,35.777,32.235,35.777,33.432"/>
		<path fill="#00A4E4" d="M71.945,59.266c0,1.196-0.971,2.167-2.167,2.167s-2.167-0.972-2.167-2.167c0-1.197,0.97-2.166,2.167-2.166
			S71.945,58.069,71.945,59.266"/>
		<path fill="#00A4E4" d="M87.445,74.768c0,1.197-0.97,2.166-2.167,2.166c-1.197,0-2.167-0.968-2.167-2.166
			c0-1.197,0.969-2.169,2.167-2.169C86.475,72.599,87.445,73.571,87.445,74.768"/>
		<path fill="#00A4E4" d="M35.777,12.764c0,1.197-0.97,2.167-2.168,2.167c-1.195,0-2.165-0.971-2.165-2.167
			c0-1.195,0.97-2.166,2.165-2.166C34.807,10.598,35.777,11.568,35.777,12.764"/>
		<path fill="#00A4E4" d="M61.611,69.601c0,1.196-0.969,2.167-2.167,2.167c-1.195,0-2.165-0.971-2.165-2.167
			c0-1.197,0.97-2.167,2.165-2.167C60.642,67.434,61.611,68.403,61.611,69.601"/>
		<path fill="#00A4E4" d="M40.943,69.601c0,1.196-0.97,2.167-2.167,2.167c-1.195,0-2.165-0.971-2.165-2.167
			c0-1.197,0.97-2.167,2.165-2.167C39.973,67.434,40.943,68.403,40.943,69.601"/>
		<path fill="#00A4E4" d="M56.444,38.599c0,1.196-0.97,2.166-2.168,2.166c-1.195,0-2.165-0.97-2.165-2.166
			c0-1.199,0.97-2.167,2.165-2.167C55.474,36.433,56.444,37.4,56.444,38.599"/>
		<path fill="#00A4E4" d="M20.275,43.764c0,1.199-0.969,2.167-2.166,2.167c-1.196,0-2.167-0.969-2.167-2.167
			c0-1.194,0.971-2.166,2.167-2.166C19.306,41.599,20.275,42.57,20.275,43.764"/>
		<path fill="#00A4E4" d="M25.442,2.43c0,1.199-0.97,2.168-2.167,2.168c-1.197,0-2.166-0.969-2.166-2.168
			c0-1.194,0.969-2.166,2.166-2.166C24.472,0.264,25.442,1.235,25.442,2.43"/>
		<path fill="#00A4E4" d="M30.609,48.932c0,1.198-0.97,2.167-2.167,2.167c-1.196,0-2.165-0.97-2.165-2.167
			c0-1.197,0.969-2.167,2.165-2.167C29.64,46.765,30.609,47.735,30.609,48.932"/>
		<path fill="#00A4E4" d="M66.777,48.932c0,1.198-0.97,2.167-2.167,2.167c-1.195,0-2.166-0.97-2.166-2.167
			c0-1.197,0.971-2.167,2.166-2.167C65.808,46.765,66.777,47.735,66.777,48.932"/>
		<path fill="#00A4E4" d="M66.777,17.932c0,1.197-0.97,2.167-2.167,2.167c-1.195,0-2.166-0.97-2.166-2.167
			c0-1.198,0.971-2.168,2.166-2.168C65.808,15.764,66.777,16.734,66.777,17.932"/>
	</g>
</g>
</svg>
