<?xml version="1.0" encoding="utf-8"?>
<!-- Generator: Adobe Illustrator 22.1.0, SVG Export Plug-In . SVG Version: 6.00 Build 0)  -->
<svg version="1.1" id="Icons" xmlns="http://www.w3.org/2000/svg" xmlns:xlink="http://www.w3.org/1999/xlink" x="0px" y="0px"
	 viewBox="0 0 122.4 122.4" style="enable-background:new 0 0 122.4 122.4;" xml:space="preserve">
<g>
	<circle style="fill:#ffffff;" cx="61.2" cy="61.2" r="7"/>
	<path style="fill:#ffffff;" d="M106.4,56.3H86.7c-2.7,0-4.9,2.2-4.9,4.9s2.2,4.9,4.9,4.9h19.7c2.7,0,4.9-2.2,4.9-4.9
		S109,56.3,106.4,56.3z"/>
	<path style="fill:#ffffff;" d="M40.6,61.2c0-2.7-2.2-4.9-4.9-4.9H16c-2.7,0-4.9,2.2-4.9,4.9s2.2,4.9,4.9,4.9h19.7
		C38.4,66.1,40.6,63.9,40.6,61.2z"/>
	<path style="fill:#ffffff;" d="M61.2,40.6c2.7,0,4.9-2.2,4.9-4.9V16c0-2.7-2.2-4.9-4.9-4.9c-2.7,0-4.9,2.2-4.9,4.9v19.7
		C56.3,38.4,58.5,40.6,61.2,40.6z"/>
	<path style="fill:#ffffff;" d="M61.2,81.8c-2.7,0-4.9,2.2-4.9,4.9v19.7c0,2.7,2.2,4.9,4.9,4.9c2.7,0,4.9-2.2,4.9-4.9V86.7
		C66.1,84,63.9,81.8,61.2,81.8z"/>
	<path style="fill:#ffffff;" d="M82.7,75.8c-1.9-1.9-5-1.9-6.9,0s-1.9,5,0,6.9l13.9,13.9c1.9,1.9,5,1.9,6.9,0l0,0
		c1.9-1.9,1.9-5,0-6.9L82.7,75.8z"/>
	<path style="fill:#ffffff;" d="M32.7,25.8c-1.9-1.9-5-1.9-6.9,0s-1.9,5,0,6.9l13.9,13.9c1.9,1.9,5,1.9,6.9,0c1.9-1.9,1.9-5,0-6.9
		L32.7,25.8z"/>
	<path style="fill:#ffffff;" d="M82.7,46.6l13.9-13.9c1.9-1.9,1.9-5,0-6.9l0,0c-1.9-1.9-5-1.9-6.9,0L75.8,39.7c-1.9,1.9-1.9,5,0,6.9
		S80.8,48.5,82.7,46.6z"/>
	<path style="fill:#ffffff;" d="M39.7,75.8L25.8,89.7c-1.9,1.9-1.9,5,0,6.9s5,1.9,6.9,0l13.9-13.9c1.9-1.9,1.9-5,0-6.9
		C44.7,73.9,41.6,73.9,39.7,75.8z"/>
</g>
</svg>
