<?xml version="1.0" encoding="utf-8"?>
<!-- Generator: Adobe Illustrator 22.1.0, SVG Export Plug-In . SVG Version: 6.00 Build 0)  -->
<svg version="1.1" id="Icons" xmlns="http://www.w3.org/2000/svg" xmlns:xlink="http://www.w3.org/1999/xlink" x="0px" y="0px"
	 viewBox="0 0 122.4 122.4" style="enable-background:new 0 0 122.4 122.4;" xml:space="preserve">
<path style="fill:#ffffff;" d="M82.2,32.2c-4,0-8.3,0-10.3,0c-2,0-3.7,2.3-3.7,3.9c0,1.5,0,10.1,0,10.1s12.2,0,13.8,0
	c-0.6,8-1.7,15-1.7,15H68.2v45h-19v-45h-9v-15h9c0,0,0-9.8,0-12.1c0-2.3-0.6-17.9,19-17.9c2.6,0,9,0,14,0
	C82.2,23.2,82.2,30.2,82.2,32.2z"/>
</svg>
