<?xml version="1.0" encoding="utf-8"?>
<!-- Generator: Adobe Illustrator 22.1.0, SVG Export Plug-In . SVG Version: 6.00 Build 0)  -->
<svg version="1.1" id="Icons" xmlns="http://www.w3.org/2000/svg" xmlns:xlink="http://www.w3.org/1999/xlink" x="0px" y="0px"
	 viewBox="0 0 122.4 122.4" style="enable-background:new 0 0 122.4 122.4;" xml:space="preserve">
<g>
	<path style="fill:#ffffff;" d="M34.3,25.5c-5.2,0-8.6,3.3-8.6,7.7c0,4.4,3.3,7.6,8.4,7.6h0.1c5.3,0,8.6-3.3,8.6-7.7
		C42.7,28.7,39.5,25.5,34.3,25.5z"/>
	<rect x="26.7" y="47.9" style="fill:#ffffff;" width="15" height="45"/>
	<path style="fill:#ffffff;" d="M79.3,46.5c-8.1,0-11.6,4.4-13.6,7.5v-6.1H50.2c0.2,4,0,45,0,45h15.4V67.6c0-1.4,0-2.7,0.4-3.7
		c1.1-2.7,3.5-5.5,7.7-5.5c5.5,0,7.8,4.2,7.8,10.3v24.2h15v-26C96.7,53,89.3,46.5,79.3,46.5z"/>
</g>
</svg>
