<?xml version="1.0" encoding="utf-8"?>
<!-- Generator: Adobe Illustrator 22.1.0, SVG Export Plug-In . SVG Version: 6.00 Build 0)  -->
<svg version="1.1" id="Icons" xmlns="http://www.w3.org/2000/svg" xmlns:xlink="http://www.w3.org/1999/xlink" x="0px" y="0px"
	 viewBox="0 0 122.4 122.4" style="enable-background:new 0 0 122.4 122.4;" xml:space="preserve">
<path style="fill:#ffffff;" d="M94.5,61.5C87.1,91.3,37.9,103.9,15.2,73c8.7,8.3,23.8,9,33.4-0.9c-5.6,0.8-9.7-4.7-2.8-7.7
	c-6.2,0.7-9.7-2.6-11.1-5.4c1.5-1.5,3.1-2.2,6.2-2.4c-6.8-1.6-9.3-4.9-10.1-9c1.9-0.5,4.2-0.8,5.5-0.7c-6-3.1-8-7.8-7.7-11.3
	c10.6,4,17.4,7.1,23.1,10.2c2,1.1,4.3,3,6.8,5.5c3.2-8.6,7.2-17.4,14.1-21.7c-0.1,1-0.6,1.9-1.3,2.7c1.9-1.8,4.5-3,7-3.3
	c-0.3,1.9-3.1,3-4.7,3.6c1.3-0.4,8-3.4,8.7-1.7c0.9,1.9-4.7,2.8-5.6,3.2c-0.7,0.2-1.4,0.5-2.1,0.8c8.5-0.9,16.7,6.2,19.1,14.9
	c0.2,0.6,0.3,1.3,0.5,2.1c3.1,1.2,8.8-0.1,10.6-1.2c-1.3,3.1-4.7,5.4-9.8,5.8c2.4,1,7,1.6,10.2,1C103.2,59.6,100,61.6,94.5,61.5z"/>
</svg>
